<?xml version="1.0" encoding="utf-8"?>
<svg version="1.1" xmlns:xlink="http://www.w3.org/1999/xlink" width="17px" height="13px" xmlns="http://www.w3.org/2000/svg">
  <g transform="matrix(1 0 0 1 -253 -180 )">
    <path d="M 16.8296593186373 1.34020618556701  C 16.9432197728791 1.48911798396334  17 1.66036655211913  17 1.85395189003436  C 17 2.0475372279496  16.9432197728791 2.21878579610538  16.8296593186373 2.36769759450172  L 8.89178356713427 12.7766323024055  C 8.77822311289245 12.9255441008018  8.64762859051436 13  8.5 13  C 8.35237140948564 13  8.22177688710755 12.9255441008018  8.10821643286573 12.7766323024055  L 0.170340681362725 2.36769759450172  C 0.0567802271209086 2.21878579610538  0 2.0475372279496  0 1.85395189003436  C 0 1.66036655211913  0.0567802271209086 1.48911798396334  0.170340681362725 1.34020618556701  L 1.02204408817635 0.223367697594502  C 1.13560454241817 0.0744558991981655  1.26619906479626 0  1.41382765531062 0  C 1.56145624582498 0  1.69205076820307 0.0744558991981655  1.80561122244489 0.223367697594502  L 8.5 9.00171821305842  L 15.1943887775551 0.223367697594502  C 15.3079492317969 0.0744558991981655  15.438543754175 0  15.5861723446894 0  C 15.7338009352037 0  15.8643954575818 0.0744558991981655  15.9779559118236 0.223367697594502  L 16.8296593186373 1.34020618556701  Z " fill-rule="nonzero" fill="#8c8c8c" stroke="none" transform="matrix(1 0 0 1 253 180 )" />
  </g>
</svg>