<?xml version="1.0" encoding="utf-8"?>
<svg version="1.1" xmlns:xlink="http://www.w3.org/1999/xlink" width="19px" height="19px" viewBox="282 116  19 19" xmlns="http://www.w3.org/2000/svg">
  <path d="M 291.5 116  C 296.82 116  301 120.18  301 125.5  C 301 130.82  296.82 135  291.5 135  C 286.18 135  282 130.82  282 125.5  C 282 120.18  286.18 116  291.5 116  Z " fill-rule="nonzero" fill="#f0f0f0" stroke="none" />
  <path d="M 291.5 116.5  C 296.54 116.5  300.5 120.46  300.5 125.5  C 300.5 130.54  296.54 134.5  291.5 134.5  C 286.46 134.5  282.5 130.54  282.5 125.5  C 282.5 120.46  286.46 116.5  291.5 116.5  Z " stroke-width="1" stroke="#797979" fill="none" />
  <path d="M 291.5 130.25  C 288.84 130.25  286.75 128.16  286.75 125.5  C 286.75 122.84  288.84 120.75  291.5 120.75  C 294.16 120.75  296.25 122.84  296.25 125.5  C 296.25 128.16  294.16 130.25  291.5 130.25  " fill-rule="nonzero" fill="#797979" stroke="none" />
</svg>