<?xml version="1.0" encoding="utf-8"?>
<svg version="1.1" xmlns:xlink="http://www.w3.org/1999/xlink" width="17px" height="13px" xmlns="http://www.w3.org/2000/svg">
  <g transform="matrix(1 0 0 1 -253 -157 )">
    <path d="M 16.8296593186373 10.6323024054983  C 16.9432197728791 10.7812142038946  17 10.9524627720504  17 11.1460481099656  C 17 11.3396334478809  16.9432197728791 11.5108820160367  16.8296593186373 11.659793814433  L 15.9779559118236 12.7766323024055  C 15.8643954575818 12.9255441008018  15.7338009352037 13  15.5861723446894 13  C 15.438543754175 13  15.3079492317969 12.9255441008018  15.1943887775551 12.7766323024055  L 8.5 3.99828178694158  L 1.80561122244489 12.7766323024055  C 1.69205076820307 12.9255441008018  1.56145624582498 13  1.41382765531062 13  C 1.26619906479626 13  1.13560454241817 12.9255441008018  1.02204408817635 12.7766323024055  L 0.170340681362725 11.659793814433  C 0.0567802271209086 11.5108820160367  0 11.3396334478809  0 11.1460481099656  C 0 10.9524627720504  0.0567802271209086 10.7812142038946  0.170340681362725 10.6323024054983  L 8.10821643286573 0.223367697594502  C 8.22177688710755 0.0744558991981655  8.35237140948564 0  8.5 0  C 8.64762859051436 0  8.77822311289245 0.0744558991981655  8.89178356713427 0.223367697594502  L 16.8296593186373 10.6323024054983  Z " fill-rule="nonzero" fill="#333333" stroke="none" transform="matrix(1 0 0 1 253 157 )" />
  </g>
</svg>