<?xml version="1.0" encoding="utf-8"?>
<svg version="1.1" xmlns:xlink="http://www.w3.org/1999/xlink" width="24px" height="24px" viewBox="125 685  24 24" xmlns="http://www.w3.org/2000/svg">
  <path d="M 137 685  C 143.72 685  149 690.28  149 697  C 149 703.72  143.72 709  137 709  C 130.28 709  125 703.72  125 697  C 125 690.28  130.28 685  137 685  Z " fill-rule="nonzero" fill="#f0f0f0" stroke="none" />
  <path d="M 137 685.5  C 143.44 685.5  148.5 690.56  148.5 697  C 148.5 703.44  143.44 708.5  137 708.5  C 130.56 708.5  125.5 703.44  125.5 697  C 125.5 690.56  130.56 685.5  137 685.5  Z " stroke-width="1" stroke="#797979" fill="none" />
  <path d="M 137 703  C 133.64 703  131 700.36  131 697  C 131 693.64  133.64 691  137 691  C 140.36 691  143 693.64  143 697  C 143 700.36  140.36 703  137 703  " fill-rule="nonzero" fill="#797979" stroke="none" />
</svg>