<?xml version="1.0" encoding="utf-8"?>
<svg version="1.1" xmlns:xlink="http://www.w3.org/1999/xlink" width="24px" height="24px" viewBox="125 681  24 24" xmlns="http://www.w3.org/2000/svg">
  <path d="M 137 681  C 143.72 681  149 686.28  149 693  C 149 699.72  143.72 705  137 705  C 130.28 705  125 699.72  125 693  C 125 686.28  130.28 681  137 681  Z " fill-rule="nonzero" fill="#ffffff" stroke="none" />
  <path d="M 137 681.5  C 143.44 681.5  148.5 686.56  148.5 693  C 148.5 699.44  143.44 704.5  137 704.5  C 130.56 704.5  125.5 699.44  125.5 693  C 125.5 686.56  130.56 681.5  137 681.5  Z " stroke-width="1" stroke="#797979" fill="none" />
  <path d="M 137 699  C 133.64 699  131 696.36  131 693  C 131 689.64  133.64 687  137 687  C 140.36 687  143 689.64  143 693  C 143 696.36  140.36 699  137 699  " fill-rule="nonzero" fill="#797979" stroke="none" />
</svg>