<?xml version="1.0" encoding="utf-8"?>
<svg version="1.1" xmlns:xlink="http://www.w3.org/1999/xlink" width="24px" height="24px" viewBox="125 752  24 24" xmlns="http://www.w3.org/2000/svg">
  <path d="M 137 752  C 143.72 752  149 757.28  149 764  C 149 770.72  143.72 776  137 776  C 130.28 776  125 770.72  125 764  C 125 757.28  130.28 752  137 752  Z " fill-rule="nonzero" fill="#f0f0f0" stroke="none" />
  <path d="M 137 752.5  C 143.44 752.5  148.5 757.56  148.5 764  C 148.5 770.44  143.44 775.5  137 775.5  C 130.56 775.5  125.5 770.44  125.5 764  C 125.5 757.56  130.56 752.5  137 752.5  Z " stroke-width="1" stroke="#797979" fill="none" />
  <path d="M 137 770  C 133.64 770  131 767.36  131 764  C 131 760.64  133.64 758  137 758  C 140.36 758  143 760.64  143 764  C 143 767.36  140.36 770  137 770  " fill-rule="nonzero" fill="#797979" stroke="none" />
</svg>