<?xml version="1.0" encoding="utf-8"?>
<svg version="1.1" xmlns:xlink="http://www.w3.org/1999/xlink" width="24px" height="24px" viewBox="125 837  24 24" xmlns="http://www.w3.org/2000/svg">
  <path d="M 137 837  C 143.72 837  149 842.28  149 849  C 149 855.72  143.72 861  137 861  C 130.28 861  125 855.72  125 849  C 125 842.28  130.28 837  137 837  Z " fill-rule="nonzero" fill="#f0f0f0" stroke="none" />
  <path d="M 137 837.5  C 143.44 837.5  148.5 842.56  148.5 849  C 148.5 855.44  143.44 860.5  137 860.5  C 130.56 860.5  125.5 855.44  125.5 849  C 125.5 842.56  130.56 837.5  137 837.5  Z " stroke-width="1" stroke="#797979" fill="none" />
  <path d="M 137 855  C 133.64 855  131 852.36  131 849  C 131 845.64  133.64 843  137 843  C 140.36 843  143 845.64  143 849  C 143 852.36  140.36 855  137 855  " fill-rule="nonzero" fill="#797979" stroke="none" />
</svg>