<?xml version="1.0" encoding="utf-8"?>
<svg version="1.1" xmlns:xlink="http://www.w3.org/1999/xlink" width="24px" height="24px" viewBox="125 719  24 24" xmlns="http://www.w3.org/2000/svg">
  <path d="M 137 719  C 143.72 719  149 724.28  149 731  C 149 737.72  143.72 743  137 743  C 130.28 743  125 737.72  125 731  C 125 724.28  130.28 719  137 719  Z " fill-rule="nonzero" fill="#ffffff" stroke="none" />
  <path d="M 137 719.5  C 143.44 719.5  148.5 724.56  148.5 731  C 148.5 737.44  143.44 742.5  137 742.5  C 130.56 742.5  125.5 737.44  125.5 731  C 125.5 724.56  130.56 719.5  137 719.5  Z " stroke-width="1" stroke="#797979" fill="none" />
  <path d="M 137 737  C 133.64 737  131 734.36  131 731  C 131 727.64  133.64 725  137 725  C 140.36 725  143 727.64  143 731  C 143 734.36  140.36 737  137 737  " fill-rule="nonzero" fill="#797979" stroke="none" />
</svg>