<?xml version="1.0" encoding="utf-8"?>
<svg version="1.1" xmlns:xlink="http://www.w3.org/1999/xlink" width="24px" height="24px" viewBox="125 408  24 24" xmlns="http://www.w3.org/2000/svg">
  <path d="M 137 408  C 143.72 408  149 413.28  149 420  C 149 426.72  143.72 432  137 432  C 130.28 432  125 426.72  125 420  C 125 413.28  130.28 408  137 408  Z " fill-rule="nonzero" fill="#f0f0f0" stroke="none" />
  <path d="M 137 408.5  C 143.44 408.5  148.5 413.56  148.5 420  C 148.5 426.44  143.44 431.5  137 431.5  C 130.56 431.5  125.5 426.44  125.5 420  C 125.5 413.56  130.56 408.5  137 408.5  Z " stroke-width="1" stroke="#797979" fill="none" />
  <path d="M 137 426  C 133.64 426  131 423.36  131 420  C 131 416.64  133.64 414  137 414  C 140.36 414  143 416.64  143 420  C 143 423.36  140.36 426  137 426  " fill-rule="nonzero" fill="#797979" stroke="none" />
</svg>