<?xml version="1.0" encoding="utf-8"?>
<svg version="1.1" xmlns:xlink="http://www.w3.org/1999/xlink" width="24px" height="24px" viewBox="125 404  24 24" xmlns="http://www.w3.org/2000/svg">
  <path d="M 137 404  C 143.72 404  149 409.28  149 416  C 149 422.72  143.72 428  137 428  C 130.28 428  125 422.72  125 416  C 125 409.28  130.28 404  137 404  Z " fill-rule="nonzero" fill="#ffffff" stroke="none" />
  <path d="M 137 404.5  C 143.44 404.5  148.5 409.56  148.5 416  C 148.5 422.44  143.44 427.5  137 427.5  C 130.56 427.5  125.5 422.44  125.5 416  C 125.5 409.56  130.56 404.5  137 404.5  Z " stroke-width="1" stroke="#797979" fill="none" />
  <path d="M 137 422  C 133.64 422  131 419.36  131 416  C 131 412.64  133.64 410  137 410  C 140.36 410  143 412.64  143 416  C 143 419.36  140.36 422  137 422  " fill-rule="nonzero" fill="#797979" stroke="none" />
</svg>