<?xml version="1.0" encoding="utf-8"?>
<svg version="1.1" xmlns:xlink="http://www.w3.org/1999/xlink" width="24px" height="24px" viewBox="125 442  24 24" xmlns="http://www.w3.org/2000/svg">
  <path d="M 137 442  C 143.72 442  149 447.28  149 454  C 149 460.72  143.72 466  137 466  C 130.28 466  125 460.72  125 454  C 125 447.28  130.28 442  137 442  Z " fill-rule="nonzero" fill="#ffffff" stroke="none" />
  <path d="M 137 442.5  C 143.44 442.5  148.5 447.56  148.5 454  C 148.5 460.44  143.44 465.5  137 465.5  C 130.56 465.5  125.5 460.44  125.5 454  C 125.5 447.56  130.56 442.5  137 442.5  Z " stroke-width="1" stroke="#797979" fill="none" />
  <path d="M 137 460  C 133.64 460  131 457.36  131 454  C 131 450.64  133.64 448  137 448  C 140.36 448  143 450.64  143 454  C 143 457.36  140.36 460  137 460  " fill-rule="nonzero" fill="#797979" stroke="none" />
</svg>