<?xml version="1.0" encoding="utf-8"?>
<svg version="1.1" xmlns:xlink="http://www.w3.org/1999/xlink" width="24px" height="24px" viewBox="125 475  24 24" xmlns="http://www.w3.org/2000/svg">
  <path d="M 137 475  C 143.72 475  149 480.28  149 487  C 149 493.72  143.72 499  137 499  C 130.28 499  125 493.72  125 487  C 125 480.28  130.28 475  137 475  Z " fill-rule="nonzero" fill="#f0f0f0" stroke="none" />
  <path d="M 137 475.5  C 143.44 475.5  148.5 480.56  148.5 487  C 148.5 493.44  143.44 498.5  137 498.5  C 130.56 498.5  125.5 493.44  125.5 487  C 125.5 480.56  130.56 475.5  137 475.5  Z " stroke-width="1" stroke="#797979" fill="none" />
  <path d="M 137 493  C 133.64 493  131 490.36  131 487  C 131 483.64  133.64 481  137 481  C 140.36 481  143 483.64  143 487  C 143 490.36  140.36 493  137 493  " fill-rule="nonzero" fill="#797979" stroke="none" />
</svg>