<?xml version="1.0" encoding="utf-8"?>
<svg version="1.1" xmlns:xlink="http://www.w3.org/1999/xlink" width="24px" height="24px" viewBox="125 594  24 24" xmlns="http://www.w3.org/2000/svg">
  <path d="M 137 594  C 143.72 594  149 599.28  149 606  C 149 612.72  143.72 618  137 618  C 130.28 618  125 612.72  125 606  C 125 599.28  130.28 594  137 594  Z " fill-rule="nonzero" fill="#ffffff" stroke="none" />
  <path d="M 137 594.5  C 143.44 594.5  148.5 599.56  148.5 606  C 148.5 612.44  143.44 617.5  137 617.5  C 130.56 617.5  125.5 612.44  125.5 606  C 125.5 599.56  130.56 594.5  137 594.5  Z " stroke-width="1" stroke="#797979" fill="none" />
  <path d="M 137 612  C 133.64 612  131 609.36  131 606  C 131 602.64  133.64 600  137 600  C 140.36 600  143 602.64  143 606  C 143 609.36  140.36 612  137 612  " fill-rule="nonzero" fill="#797979" stroke="none" />
</svg>