<?xml version="1.0" encoding="utf-8"?>
<svg version="1.1" xmlns:xlink="http://www.w3.org/1999/xlink" width="24px" height="24px" viewBox="219 59  24 24" xmlns="http://www.w3.org/2000/svg">
  <path d="M 231 59  C 237.72 59  243 64.28  243 71  C 243 77.72  237.72 83  231 83  C 224.28 83  219 77.72  219 71  C 219 64.28  224.28 59  231 59  Z " fill-rule="nonzero" fill="#f0f0f0" stroke="none" />
  <path d="M 231 59.5  C 237.44 59.5  242.5 64.56  242.5 71  C 242.5 77.44  237.44 82.5  231 82.5  C 224.56 82.5  219.5 77.44  219.5 71  C 219.5 64.56  224.56 59.5  231 59.5  Z " stroke-width="1" stroke="#797979" fill="none" />
  <path d="M 231 77  C 227.64 77  225 74.36  225 71  C 225 67.64  227.64 65  231 65  C 234.36 65  237 67.64  237 71  C 237 74.36  234.36 77  231 77  " fill-rule="nonzero" fill="#797979" stroke="none" />
</svg>