<?xml version="1.0" encoding="utf-8"?>
<svg version="1.1" xmlns:xlink="http://www.w3.org/1999/xlink" width="27px" height="25px" xmlns="http://www.w3.org/2000/svg">
  <g transform="matrix(1 0 0 1 -218 -206 )">
    <path d="M 19.86328125 14.6240234375  C 20.00390625 14.8790147569444  20.02734375 15.1421440972222  19.93359375 15.4134114583333  C 19.5 16.7263454861111  18.69140625 17.7842881944444  17.5078125 18.5872395833333  C 16.32421875 19.3901909722222  14.98828125 19.7916666666667  13.5 19.7916666666667  C 12.01171875 19.7916666666667  10.67578125 19.3901909722222  9.4921875 18.5872395833333  C 8.30859375 17.7842881944444  7.5 16.7263454861111  7.06640625 15.4134114583333  C 6.97265625 15.1421440972222  6.99609375 14.8790147569444  7.13671875 14.6240234375  C 7.27734375 14.3690321180556  7.5 14.1981336805556  7.8046875 14.111328125  C 8.09765625 14.0245225694444  8.3818359375 14.0462239583333  8.6572265625 14.1764322916667  C 8.9326171875 14.306640625  9.1171875 14.5128038194444  9.2109375 14.794921875  C 9.50390625 15.6629774305556  10.0458984375 16.3655598958333  10.8369140625 16.9026692708333  C 11.6279296875 17.4397786458333  12.515625 17.7083333333333  13.5 17.7083333333333  C 14.484375 17.7083333333333  15.3720703125 17.4397786458333  16.1630859375 16.9026692708333  C 16.9541015625 16.3655598958333  17.49609375 15.6629774305556  17.7890625 14.794921875  C 17.8828125 14.5128038194444  18.0703125 14.306640625  18.3515625 14.1764322916667  C 18.6328125 14.0462239583333  18.919921875 14.0245225694444  19.212890625 14.111328125  C 19.505859375 14.1981336805556  19.72265625 14.3690321180556  19.86328125 14.6240234375  Z M 10.5908203125 6.8603515625  C 11.0302734375 7.26725260416667  11.25 7.75824652777778  11.25 8.33333333333333  C 11.25 8.90842013888889  11.0302734375 9.3994140625  10.5908203125 9.80631510416667  C 10.1513671875 10.2132161458333  9.62109375 10.4166666666667  9 10.4166666666667  C 8.37890625 10.4166666666667  7.8486328125 10.2132161458333  7.4091796875 9.80631510416667  C 6.9697265625 9.3994140625  6.75 8.90842013888889  6.75 8.33333333333333  C 6.75 7.75824652777778  6.9697265625 7.26725260416667  7.4091796875 6.8603515625  C 7.8486328125 6.45345052083333  8.37890625 6.25  9 6.25  C 9.62109375 6.25  10.1513671875 6.45345052083333  10.5908203125 6.8603515625  Z M 19.5908203125 6.8603515625  C 20.0302734375 7.26725260416667  20.25 7.75824652777778  20.25 8.33333333333333  C 20.25 8.90842013888889  20.0302734375 9.3994140625  19.5908203125 9.80631510416667  C 19.1513671875 10.2132161458333  18.62109375 10.4166666666667  18 10.4166666666667  C 17.37890625 10.4166666666667  16.8486328125 10.2132161458333  16.4091796875 9.80631510416667  C 15.9697265625 9.3994140625  15.75 8.90842013888889  15.75 8.33333333333333  C 15.75 7.75824652777778  15.9697265625 7.26725260416667  16.4091796875 6.8603515625  C 16.8486328125 6.45345052083333  17.37890625 6.25  18 6.25  C 18.62109375 6.25  19.1513671875 6.45345052083333  19.5908203125 6.8603515625  Z M 23.853515625 16.5445963541667  C 24.451171875 15.2587890625  24.75 13.9105902777778  24.75 12.5  C 24.75 11.0894097222222  24.451171875 9.7412109375  23.853515625 8.45540364583333  C 23.255859375 7.16959635416667  22.4560546875 6.06282552083333  21.4541015625 5.13509114583333  C 20.4521484375 4.20735677083333  19.2568359375 3.466796875  17.8681640625 2.91341145833333  C 16.4794921875 2.36002604166667  15.0234375 2.08333333333333  13.5 2.08333333333333  C 11.9765625 2.08333333333333  10.5205078125 2.36002604166667  9.1318359375 2.91341145833333  C 7.7431640625 3.466796875  6.5478515625 4.20735677083333  5.5458984375 5.13509114583333  C 4.5439453125 6.06282552083333  3.744140625 7.16959635416667  3.146484375 8.45540364583333  C 2.548828125 9.7412109375  2.25 11.0894097222222  2.25 12.5  C 2.25 13.9105902777778  2.548828125 15.2587890625  3.146484375 16.5445963541667  C 3.744140625 17.8304036458333  4.5439453125 18.9371744791667  5.5458984375 19.8649088541667  C 6.5478515625 20.7926432291667  7.7431640625 21.533203125  9.1318359375 22.0865885416667  C 10.5205078125 22.6399739583333  11.9765625 22.9166666666667  13.5 22.9166666666667  C 15.0234375 22.9166666666667  16.4794921875 22.6399739583333  17.8681640625 22.0865885416667  C 19.2568359375 21.533203125  20.4521484375 20.7926432291667  21.4541015625 19.8649088541667  C 22.4560546875 18.9371744791667  23.255859375 17.8304036458333  23.853515625 16.5445963541667  Z M 25.189453125 6.2255859375  C 26.396484375 8.14073350694444  27 10.2322048611111  27 12.5  C 27 14.7677951388889  26.396484375 16.8592664930556  25.189453125 18.7744140625  C 23.982421875 20.6895616319444  22.3447265625 22.2059461805556  20.2763671875 23.3235677083333  C 18.2080078125 24.4411892361111  15.94921875 25  13.5 25  C 11.05078125 25  8.7919921875 24.4411892361111  6.7236328125 23.3235677083333  C 4.6552734375 22.2059461805556  3.017578125 20.6895616319444  1.810546875 18.7744140625  C 0.603515625 16.8592664930556  0 14.7677951388889  0 12.5  C 0 10.2322048611111  0.603515625 8.14073350694444  1.810546875 6.2255859375  C 3.017578125 4.31043836805556  4.6552734375 2.79405381944444  6.7236328125 1.67643229166667  C 8.7919921875 0.558810763888887  11.05078125 0  13.5 0  C 15.94921875 0  18.2080078125 0.558810763888887  20.2763671875 1.67643229166667  C 22.3447265625 2.79405381944444  23.982421875 4.31043836805556  25.189453125 6.2255859375  Z " fill-rule="nonzero" fill="#ffffff" stroke="none" transform="matrix(1 0 0 1 218 206 )" />
  </g>
</svg>