<?xml version="1.0" encoding="utf-8"?>
<svg version="1.1" xmlns:xlink="http://www.w3.org/1999/xlink" width="23px" height="23px" viewBox="18 2053.5  23 23" xmlns="http://www.w3.org/2000/svg">
  <path d="M 29.5 2053.5  C 35.94 2053.5  41 2058.56  41 2065  C 41 2071.44  35.94 2076.5  29.5 2076.5  C 23.06 2076.5  18 2071.44  18 2065  C 18 2058.56  23.06 2053.5  29.5 2053.5  Z " fill-rule="nonzero" fill="#f0f0f0" stroke="none" />
  <path d="M 29.5 2054  C 35.66 2054  40.5 2058.84  40.5 2065  C 40.5 2071.16  35.66 2076  29.5 2076  C 23.34 2076  18.5 2071.16  18.5 2065  C 18.5 2058.84  23.34 2054  29.5 2054  Z " stroke-width="1" stroke="#797979" fill="none" />
  <path d="M 29.5 2070.75  C 26.28 2070.75  23.75 2068.22  23.75 2065  C 23.75 2061.78  26.28 2059.25  29.5 2059.25  C 32.72 2059.25  35.25 2061.78  35.25 2065  C 35.25 2068.22  32.72 2070.75  29.5 2070.75  " fill-rule="nonzero" fill="#797979" stroke="none" />
</svg>