<?xml version="1.0" encoding="utf-8"?>
<svg version="1.1" xmlns:xlink="http://www.w3.org/1999/xlink" width="23px" height="23px" viewBox="15 1333.5  23 23" xmlns="http://www.w3.org/2000/svg">
  <path d="M 26.5 1333.5  C 32.94 1333.5  38 1338.56  38 1345  C 38 1351.44  32.94 1356.5  26.5 1356.5  C 20.06 1356.5  15 1351.44  15 1345  C 15 1338.56  20.06 1333.5  26.5 1333.5  Z " fill-rule="nonzero" fill="#f0f0f0" stroke="none" />
  <path d="M 26.5 1334  C 32.66 1334  37.5 1338.84  37.5 1345  C 37.5 1351.16  32.66 1356  26.5 1356  C 20.34 1356  15.5 1351.16  15.5 1345  C 15.5 1338.84  20.34 1334  26.5 1334  Z " stroke-width="1" stroke="#797979" fill="none" />
  <path d="M 26.5 1350.75  C 23.28 1350.75  20.75 1348.22  20.75 1345  C 20.75 1341.78  23.28 1339.25  26.5 1339.25  C 29.72 1339.25  32.25 1341.78  32.25 1345  C 32.25 1348.22  29.72 1350.75  26.5 1350.75  " fill-rule="nonzero" fill="#797979" stroke="none" />
</svg>