<?xml version="1.0" encoding="utf-8"?>
<svg version="1.1" xmlns:xlink="http://www.w3.org/1999/xlink" width="23px" height="23px" viewBox="15 1389.5  23 23" xmlns="http://www.w3.org/2000/svg">
  <path d="M 26.5 1389.5  C 32.94 1389.5  38 1394.56  38 1401  C 38 1407.44  32.94 1412.5  26.5 1412.5  C 20.06 1412.5  15 1407.44  15 1401  C 15 1394.56  20.06 1389.5  26.5 1389.5  Z " fill-rule="nonzero" fill="#ffffff" stroke="none" />
  <path d="M 26.5 1390  C 32.66 1390  37.5 1394.84  37.5 1401  C 37.5 1407.16  32.66 1412  26.5 1412  C 20.34 1412  15.5 1407.16  15.5 1401  C 15.5 1394.84  20.34 1390  26.5 1390  Z " stroke-width="1" stroke="#797979" fill="none" />
  <path d="M 26.5 1406.75  C 23.28 1406.75  20.75 1404.22  20.75 1401  C 20.75 1397.78  23.28 1395.25  26.5 1395.25  C 29.72 1395.25  32.25 1397.78  32.25 1401  C 32.25 1404.22  29.72 1406.75  26.5 1406.75  " fill-rule="nonzero" fill="#797979" stroke="none" />
</svg>