<?xml version="1.0" encoding="utf-8"?>
<svg version="1.1" xmlns:xlink="http://www.w3.org/1999/xlink" width="24px" height="24px" viewBox="137 1628  24 24" xmlns="http://www.w3.org/2000/svg">
  <path d="M 149 1628  C 155.72 1628  161 1633.28  161 1640  C 161 1646.72  155.72 1652  149 1652  C 142.28 1652  137 1646.72  137 1640  C 137 1633.28  142.28 1628  149 1628  Z " fill-rule="nonzero" fill="#ffffff" stroke="none" />
  <path d="M 149 1628.5  C 155.44 1628.5  160.5 1633.56  160.5 1640  C 160.5 1646.44  155.44 1651.5  149 1651.5  C 142.56 1651.5  137.5 1646.44  137.5 1640  C 137.5 1633.56  142.56 1628.5  149 1628.5  Z " stroke-width="1" stroke="#797979" fill="none" />
  <path d="M 149 1646  C 145.64 1646  143 1643.36  143 1640  C 143 1636.64  145.64 1634  149 1634  C 152.36 1634  155 1636.64  155 1640  C 155 1643.36  152.36 1646  149 1646  " fill-rule="nonzero" fill="#797979" stroke="none" />
</svg>