<?xml version="1.0" encoding="utf-8"?>
<svg version="1.1" xmlns:xlink="http://www.w3.org/1999/xlink" width="24px" height="24px" viewBox="137 1688  24 24" xmlns="http://www.w3.org/2000/svg">
  <path d="M 149 1688  C 155.72 1688  161 1693.28  161 1700  C 161 1706.72  155.72 1712  149 1712  C 142.28 1712  137 1706.72  137 1700  C 137 1693.28  142.28 1688  149 1688  Z " fill-rule="nonzero" fill="#ffffff" stroke="none" />
  <path d="M 149 1688.5  C 155.44 1688.5  160.5 1693.56  160.5 1700  C 160.5 1706.44  155.44 1711.5  149 1711.5  C 142.56 1711.5  137.5 1706.44  137.5 1700  C 137.5 1693.56  142.56 1688.5  149 1688.5  Z " stroke-width="1" stroke="#797979" fill="none" />
  <path d="M 149 1706  C 145.64 1706  143 1703.36  143 1700  C 143 1696.64  145.64 1694  149 1694  C 152.36 1694  155 1696.64  155 1700  C 155 1703.36  152.36 1706  149 1706  " fill-rule="nonzero" fill="#797979" stroke="none" />
</svg>