<?xml version="1.0" encoding="utf-8"?>
<svg version="1.1" xmlns:xlink="http://www.w3.org/1999/xlink" width="24px" height="24px" viewBox="137 1697  24 24" xmlns="http://www.w3.org/2000/svg">
  <path d="M 149 1697  C 155.72 1697  161 1702.28  161 1709  C 161 1715.72  155.72 1721  149 1721  C 142.28 1721  137 1715.72  137 1709  C 137 1702.28  142.28 1697  149 1697  Z " fill-rule="nonzero" fill="#f0f0f0" stroke="none" />
  <path d="M 149 1697.5  C 155.44 1697.5  160.5 1702.56  160.5 1709  C 160.5 1715.44  155.44 1720.5  149 1720.5  C 142.56 1720.5  137.5 1715.44  137.5 1709  C 137.5 1702.56  142.56 1697.5  149 1697.5  Z " stroke-width="1" stroke="#797979" fill="none" />
  <path d="M 149 1715  C 145.64 1715  143 1712.36  143 1709  C 143 1705.64  145.64 1703  149 1703  C 152.36 1703  155 1705.64  155 1709  C 155 1712.36  152.36 1715  149 1715  " fill-rule="nonzero" fill="#797979" stroke="none" />
</svg>