<?xml version="1.0" encoding="utf-8"?>
<svg version="1.1" xmlns:xlink="http://www.w3.org/1999/xlink" width="24px" height="24px" viewBox="137 1766  24 24" xmlns="http://www.w3.org/2000/svg">
  <path d="M 149 1766  C 155.72 1766  161 1771.28  161 1778  C 161 1784.72  155.72 1790  149 1790  C 142.28 1790  137 1784.72  137 1778  C 137 1771.28  142.28 1766  149 1766  Z " fill-rule="nonzero" fill="#ffffff" stroke="none" />
  <path d="M 149 1766.5  C 155.44 1766.5  160.5 1771.56  160.5 1778  C 160.5 1784.44  155.44 1789.5  149 1789.5  C 142.56 1789.5  137.5 1784.44  137.5 1778  C 137.5 1771.56  142.56 1766.5  149 1766.5  Z " stroke-width="1" stroke="#797979" fill="none" />
  <path d="M 149 1784  C 145.64 1784  143 1781.36  143 1778  C 143 1774.64  145.64 1772  149 1772  C 152.36 1772  155 1774.64  155 1778  C 155 1781.36  152.36 1784  149 1784  " fill-rule="nonzero" fill="#797979" stroke="none" />
</svg>