<?xml version="1.0" encoding="utf-8"?>
<svg version="1.1" xmlns:xlink="http://www.w3.org/1999/xlink" width="24px" height="24px" viewBox="137 1834  24 24" xmlns="http://www.w3.org/2000/svg">
  <path d="M 149 1834  C 155.72 1834  161 1839.28  161 1846  C 161 1852.72  155.72 1858  149 1858  C 142.28 1858  137 1852.72  137 1846  C 137 1839.28  142.28 1834  149 1834  Z " fill-rule="nonzero" fill="#ffffff" stroke="none" />
  <path d="M 149 1834.5  C 155.44 1834.5  160.5 1839.56  160.5 1846  C 160.5 1852.44  155.44 1857.5  149 1857.5  C 142.56 1857.5  137.5 1852.44  137.5 1846  C 137.5 1839.56  142.56 1834.5  149 1834.5  Z " stroke-width="1" stroke="#797979" fill="none" />
  <path d="M 149 1852  C 145.64 1852  143 1849.36  143 1846  C 143 1842.64  145.64 1840  149 1840  C 152.36 1840  155 1842.64  155 1846  C 155 1849.36  152.36 1852  149 1852  " fill-rule="nonzero" fill="#797979" stroke="none" />
</svg>