<?xml version="1.0" encoding="utf-8"?>
<svg version="1.1" xmlns:xlink="http://www.w3.org/1999/xlink" width="24px" height="24px" viewBox="137 1904  24 24" xmlns="http://www.w3.org/2000/svg">
  <path d="M 149 1904  C 155.72 1904  161 1909.28  161 1916  C 161 1922.72  155.72 1928  149 1928  C 142.28 1928  137 1922.72  137 1916  C 137 1909.28  142.28 1904  149 1904  Z " fill-rule="nonzero" fill="#ffffff" stroke="none" />
  <path d="M 149 1904.5  C 155.44 1904.5  160.5 1909.56  160.5 1916  C 160.5 1922.44  155.44 1927.5  149 1927.5  C 142.56 1927.5  137.5 1922.44  137.5 1916  C 137.5 1909.56  142.56 1904.5  149 1904.5  Z " stroke-width="1" stroke="#797979" fill="none" />
  <path d="M 149 1922  C 145.64 1922  143 1919.36  143 1916  C 143 1912.64  145.64 1910  149 1910  C 152.36 1910  155 1912.64  155 1916  C 155 1919.36  152.36 1922  149 1922  " fill-rule="nonzero" fill="#797979" stroke="none" />
</svg>