<?xml version="1.0" encoding="utf-8"?>
<svg version="1.1" xmlns:xlink="http://www.w3.org/1999/xlink" width="24px" height="24px" viewBox="137 1562  24 24" xmlns="http://www.w3.org/2000/svg">
  <path d="M 149 1562  C 155.72 1562  161 1567.28  161 1574  C 161 1580.72  155.72 1586  149 1586  C 142.28 1586  137 1580.72  137 1574  C 137 1567.28  142.28 1562  149 1562  Z " fill-rule="nonzero" fill="#ffffff" stroke="none" />
  <path d="M 149 1562.5  C 155.44 1562.5  160.5 1567.56  160.5 1574  C 160.5 1580.44  155.44 1585.5  149 1585.5  C 142.56 1585.5  137.5 1580.44  137.5 1574  C 137.5 1567.56  142.56 1562.5  149 1562.5  Z " stroke-width="1" stroke="#797979" fill="none" />
  <path d="M 149 1580  C 145.64 1580  143 1577.36  143 1574  C 143 1570.64  145.64 1568  149 1568  C 152.36 1568  155 1570.64  155 1574  C 155 1577.36  152.36 1580  149 1580  " fill-rule="nonzero" fill="#797979" stroke="none" />
</svg>