<?xml version="1.0" encoding="utf-8"?>
<svg version="1.1" xmlns:xlink="http://www.w3.org/1999/xlink" width="24px" height="24px" viewBox="137 1569  24 24" xmlns="http://www.w3.org/2000/svg">
  <path d="M 149 1569  C 155.72 1569  161 1574.28  161 1581  C 161 1587.72  155.72 1593  149 1593  C 142.28 1593  137 1587.72  137 1581  C 137 1574.28  142.28 1569  149 1569  Z " fill-rule="nonzero" fill="#f0f0f0" stroke="none" />
  <path d="M 149 1569.5  C 155.44 1569.5  160.5 1574.56  160.5 1581  C 160.5 1587.44  155.44 1592.5  149 1592.5  C 142.56 1592.5  137.5 1587.44  137.5 1581  C 137.5 1574.56  142.56 1569.5  149 1569.5  Z " stroke-width="1" stroke="#797979" fill="none" />
  <path d="M 149 1587  C 145.64 1587  143 1584.36  143 1581  C 143 1577.64  145.64 1575  149 1575  C 152.36 1575  155 1577.64  155 1581  C 155 1584.36  152.36 1587  149 1587  " fill-rule="nonzero" fill="#797979" stroke="none" />
</svg>