<?xml version="1.0" encoding="utf-8"?>
<svg version="1.1" xmlns:xlink="http://www.w3.org/1999/xlink" width="24px" height="24px" viewBox="137 1635  24 24" xmlns="http://www.w3.org/2000/svg">
  <path d="M 149 1635  C 155.72 1635  161 1640.28  161 1647  C 161 1653.72  155.72 1659  149 1659  C 142.28 1659  137 1653.72  137 1647  C 137 1640.28  142.28 1635  149 1635  Z " fill-rule="nonzero" fill="#f0f0f0" stroke="none" />
  <path d="M 149 1635.5  C 155.44 1635.5  160.5 1640.56  160.5 1647  C 160.5 1653.44  155.44 1658.5  149 1658.5  C 142.56 1658.5  137.5 1653.44  137.5 1647  C 137.5 1640.56  142.56 1635.5  149 1635.5  Z " stroke-width="1" stroke="#797979" fill="none" />
  <path d="M 149 1653  C 145.64 1653  143 1650.36  143 1647  C 143 1643.64  145.64 1641  149 1641  C 152.36 1641  155 1643.64  155 1647  C 155 1650.36  152.36 1653  149 1653  " fill-rule="nonzero" fill="#797979" stroke="none" />
</svg>