<?xml version="1.0" encoding="utf-8"?>
<svg version="1.1" xmlns:xlink="http://www.w3.org/1999/xlink" width="24px" height="24px" viewBox="137 1686  24 24" xmlns="http://www.w3.org/2000/svg">
  <path d="M 149 1686  C 155.72 1686  161 1691.28  161 1698  C 161 1704.72  155.72 1710  149 1710  C 142.28 1710  137 1704.72  137 1698  C 137 1691.28  142.28 1686  149 1686  Z " fill-rule="nonzero" fill="#ffffff" stroke="none" />
  <path d="M 149 1686.5  C 155.44 1686.5  160.5 1691.56  160.5 1698  C 160.5 1704.44  155.44 1709.5  149 1709.5  C 142.56 1709.5  137.5 1704.44  137.5 1698  C 137.5 1691.56  142.56 1686.5  149 1686.5  Z " stroke-width="1" stroke="#797979" fill="none" />
  <path d="M 149 1704  C 145.64 1704  143 1701.36  143 1698  C 143 1694.64  145.64 1692  149 1692  C 152.36 1692  155 1694.64  155 1698  C 155 1701.36  152.36 1704  149 1704  " fill-rule="nonzero" fill="#797979" stroke="none" />
</svg>