<?xml version="1.0" encoding="utf-8"?>
<svg version="1.1" xmlns:xlink="http://www.w3.org/1999/xlink" width="24px" height="24px" viewBox="137 1893  24 24" xmlns="http://www.w3.org/2000/svg">
  <path d="M 149 1893  C 155.72 1893  161 1898.28  161 1905  C 161 1911.72  155.72 1917  149 1917  C 142.28 1917  137 1911.72  137 1905  C 137 1898.28  142.28 1893  149 1893  Z " fill-rule="nonzero" fill="#ffffff" stroke="none" />
  <path d="M 149 1893.5  C 155.44 1893.5  160.5 1898.56  160.5 1905  C 160.5 1911.44  155.44 1916.5  149 1916.5  C 142.56 1916.5  137.5 1911.44  137.5 1905  C 137.5 1898.56  142.56 1893.5  149 1893.5  Z " stroke-width="1" stroke="#797979" fill="none" />
  <path d="M 149 1911  C 145.64 1911  143 1908.36  143 1905  C 143 1901.64  145.64 1899  149 1899  C 152.36 1899  155 1901.64  155 1905  C 155 1908.36  152.36 1911  149 1911  " fill-rule="nonzero" fill="#797979" stroke="none" />
</svg>