<?xml version="1.0" encoding="utf-8"?>
<svg version="1.1" xmlns:xlink="http://www.w3.org/1999/xlink" width="24px" height="24px" viewBox="129 1840  24 24" xmlns="http://www.w3.org/2000/svg">
  <path d="M 141 1840  C 147.72 1840  153 1845.28  153 1852  C 153 1858.72  147.72 1864  141 1864  C 134.28 1864  129 1858.72  129 1852  C 129 1845.28  134.28 1840  141 1840  Z " fill-rule="nonzero" fill="#f0f0f0" stroke="none" />
  <path d="M 141 1840.5  C 147.44 1840.5  152.5 1845.56  152.5 1852  C 152.5 1858.44  147.44 1863.5  141 1863.5  C 134.56 1863.5  129.5 1858.44  129.5 1852  C 129.5 1845.56  134.56 1840.5  141 1840.5  Z " stroke-width="1" stroke="#797979" fill="none" />
  <path d="M 141 1858  C 137.64 1858  135 1855.36  135 1852  C 135 1848.64  137.64 1846  141 1846  C 144.36 1846  147 1848.64  147 1852  C 147 1855.36  144.36 1858  141 1858  " fill-rule="nonzero" fill="#797979" stroke="none" />
</svg>