<?xml version="1.0" encoding="utf-8"?>
<svg version="1.1" xmlns:xlink="http://www.w3.org/1999/xlink" width="24px" height="24px" viewBox="129 2035  24 24" xmlns="http://www.w3.org/2000/svg">
  <path d="M 141 2035  C 147.72 2035  153 2040.28  153 2047  C 153 2053.72  147.72 2059  141 2059  C 134.28 2059  129 2053.72  129 2047  C 129 2040.28  134.28 2035  141 2035  Z " fill-rule="nonzero" fill="#f0f0f0" stroke="none" />
  <path d="M 141 2035.5  C 147.44 2035.5  152.5 2040.56  152.5 2047  C 152.5 2053.44  147.44 2058.5  141 2058.5  C 134.56 2058.5  129.5 2053.44  129.5 2047  C 129.5 2040.56  134.56 2035.5  141 2035.5  Z " stroke-width="1" stroke="#797979" fill="none" />
  <path d="M 141 2053  C 137.64 2053  135 2050.36  135 2047  C 135 2043.64  137.64 2041  141 2041  C 144.36 2041  147 2043.64  147 2047  C 147 2050.36  144.36 2053  141 2053  " fill-rule="nonzero" fill="#797979" stroke="none" />
</svg>