<?xml version="1.0" encoding="utf-8"?>
<svg version="1.1" xmlns:xlink="http://www.w3.org/1999/xlink" width="24px" height="24px" viewBox="129 1833  24 24" xmlns="http://www.w3.org/2000/svg">
  <path d="M 141 1833  C 147.72 1833  153 1838.28  153 1845  C 153 1851.72  147.72 1857  141 1857  C 134.28 1857  129 1851.72  129 1845  C 129 1838.28  134.28 1833  141 1833  Z " fill-rule="nonzero" fill="#ffffff" stroke="none" />
  <path d="M 141 1833.5  C 147.44 1833.5  152.5 1838.56  152.5 1845  C 152.5 1851.44  147.44 1856.5  141 1856.5  C 134.56 1856.5  129.5 1851.44  129.5 1845  C 129.5 1838.56  134.56 1833.5  141 1833.5  Z " stroke-width="1" stroke="#797979" fill="none" />
  <path d="M 141 1851  C 137.64 1851  135 1848.36  135 1845  C 135 1841.64  137.64 1839  141 1839  C 144.36 1839  147 1841.64  147 1845  C 147 1848.36  144.36 1851  141 1851  " fill-rule="nonzero" fill="#797979" stroke="none" />
</svg>