<?xml version="1.0" encoding="utf-8"?>
<svg version="1.1" xmlns:xlink="http://www.w3.org/1999/xlink" width="24px" height="24px" viewBox="129 1906  24 24" xmlns="http://www.w3.org/2000/svg">
  <path d="M 141 1906  C 147.72 1906  153 1911.28  153 1918  C 153 1924.72  147.72 1930  141 1930  C 134.28 1930  129 1924.72  129 1918  C 129 1911.28  134.28 1906  141 1906  Z " fill-rule="nonzero" fill="#f0f0f0" stroke="none" />
  <path d="M 141 1906.5  C 147.44 1906.5  152.5 1911.56  152.5 1918  C 152.5 1924.44  147.44 1929.5  141 1929.5  C 134.56 1929.5  129.5 1924.44  129.5 1918  C 129.5 1911.56  134.56 1906.5  141 1906.5  Z " stroke-width="1" stroke="#797979" fill="none" />
  <path d="M 141 1924  C 137.64 1924  135 1921.36  135 1918  C 135 1914.64  137.64 1912  141 1912  C 144.36 1912  147 1914.64  147 1918  C 147 1921.36  144.36 1924  141 1924  " fill-rule="nonzero" fill="#797979" stroke="none" />
</svg>