<?xml version="1.0" encoding="utf-8"?>
<svg version="1.1" xmlns:xlink="http://www.w3.org/1999/xlink" width="24px" height="24px" viewBox="129 1899  24 24" xmlns="http://www.w3.org/2000/svg">
  <path d="M 141 1899  C 147.72 1899  153 1904.28  153 1911  C 153 1917.72  147.72 1923  141 1923  C 134.28 1923  129 1917.72  129 1911  C 129 1904.28  134.28 1899  141 1899  Z " fill-rule="nonzero" fill="#ffffff" stroke="none" />
  <path d="M 141 1899.5  C 147.44 1899.5  152.5 1904.56  152.5 1911  C 152.5 1917.44  147.44 1922.5  141 1922.5  C 134.56 1922.5  129.5 1917.44  129.5 1911  C 129.5 1904.56  134.56 1899.5  141 1899.5  Z " stroke-width="1" stroke="#797979" fill="none" />
  <path d="M 141 1917  C 137.64 1917  135 1914.36  135 1911  C 135 1907.64  137.64 1905  141 1905  C 144.36 1905  147 1907.64  147 1911  C 147 1914.36  144.36 1917  141 1917  " fill-rule="nonzero" fill="#797979" stroke="none" />
</svg>