<?xml version="1.0" encoding="utf-8"?>
<svg version="1.1" xmlns:xlink="http://www.w3.org/1999/xlink" width="24px" height="24px" viewBox="129 2103  24 24" xmlns="http://www.w3.org/2000/svg">
  <path d="M 141 2103  C 147.72 2103  153 2108.28  153 2115  C 153 2121.72  147.72 2127  141 2127  C 134.28 2127  129 2121.72  129 2115  C 129 2108.28  134.28 2103  141 2103  Z " fill-rule="nonzero" fill="#f0f0f0" stroke="none" />
  <path d="M 141 2103.5  C 147.44 2103.5  152.5 2108.56  152.5 2115  C 152.5 2121.44  147.44 2126.5  141 2126.5  C 134.56 2126.5  129.5 2121.44  129.5 2115  C 129.5 2108.56  134.56 2103.5  141 2103.5  Z " stroke-width="1" stroke="#797979" fill="none" />
  <path d="M 141 2121  C 137.64 2121  135 2118.36  135 2115  C 135 2111.64  137.64 2109  141 2109  C 144.36 2109  147 2111.64  147 2115  C 147 2118.36  144.36 2121  141 2121  " fill-rule="nonzero" fill="#797979" stroke="none" />
</svg>