<?xml version="1.0" encoding="utf-8"?>
<svg version="1.1" xmlns:xlink="http://www.w3.org/1999/xlink" width="170px" height="170px" xmlns="http://www.w3.org/2000/svg">
  <g transform="matrix(1 0 0 1 -786 -100 )">
    <path d="M 871 100  C 918.6 100  956 137.4  956 185  C 956 232.6  918.6 270  871 270  C 823.4 270  786 232.6  786 185  C 786 137.4  823.4 100  871 100  Z " fill-rule="nonzero" fill="#d9001b" stroke="none" />
    <path d="M 871 100.5  C 918.32 100.5  955.5 137.68  955.5 185  C 955.5 232.32  918.32 269.5  871 269.5  C 823.68 269.5  786.5 232.32  786.5 185  C 786.5 137.68  823.68 100.5  871 100.5  Z " stroke-width="1" stroke="#797979" fill="none" />
  </g>
</svg>