<?xml version="1.0" encoding="utf-8"?>
<svg version="1.1" xmlns:xlink="http://www.w3.org/1999/xlink" width="12px" height="12px" viewBox="442 165  12 12" xmlns="http://www.w3.org/2000/svg">
  <path d="M 448 165  C 451.36 165  454 167.64  454 171  C 454 174.36  451.36 177  448 177  C 444.64 177  442 174.36  442 171  C 442 167.64  444.64 165  448 165  Z " fill-rule="nonzero" fill="#ffffff" stroke="none" />
  <path d="M 448 165.5  C 451.08 165.5  453.5 167.92  453.5 171  C 453.5 174.08  451.08 176.5  448 176.5  C 444.92 176.5  442.5 174.08  442.5 171  C 442.5 167.92  444.92 165.5  448 165.5  Z " stroke-width="1" stroke="#797979" fill="none" />
  <path d="M 448 174  C 446.32 174  445 172.68  445 171  C 445 169.32  446.32 168  448 168  C 449.68 168  451 169.32  451 171  C 451 172.68  449.68 174  448 174  " fill-rule="nonzero" fill="#797979" stroke="none" />
</svg>