<?xml version="1.0" encoding="utf-8"?>
<svg version="1.1" xmlns:xlink="http://www.w3.org/1999/xlink" width="12px" height="12px" viewBox="39 1166  12 12" xmlns="http://www.w3.org/2000/svg">
  <path d="M 45 1166  C 48.36 1166  51 1168.64  51 1172  C 51 1175.36  48.36 1178  45 1178  C 41.64 1178  39 1175.36  39 1172  C 39 1168.64  41.64 1166  45 1166  Z " fill-rule="nonzero" fill="#f0f0f0" stroke="none" />
  <path d="M 45 1166.5  C 48.08 1166.5  50.5 1168.92  50.5 1172  C 50.5 1175.08  48.08 1177.5  45 1177.5  C 41.92 1177.5  39.5 1175.08  39.5 1172  C 39.5 1168.92  41.92 1166.5  45 1166.5  Z " stroke-width="1" stroke="#797979" fill="none" />
  <path d="M 45 1175  C 43.32 1175  42 1173.68  42 1172  C 42 1170.32  43.32 1169  45 1169  C 46.68 1169  48 1170.32  48 1172  C 48 1173.68  46.68 1175  45 1175  " fill-rule="nonzero" fill="#797979" stroke="none" />
</svg>