<?xml version="1.0" encoding="utf-8"?>
<svg version="1.1" xmlns:xlink="http://www.w3.org/1999/xlink" width="12px" height="12px" viewBox="39 1243  12 12" xmlns="http://www.w3.org/2000/svg">
  <path d="M 45 1243  C 48.36 1243  51 1245.64  51 1249  C 51 1252.36  48.36 1255  45 1255  C 41.64 1255  39 1252.36  39 1249  C 39 1245.64  41.64 1243  45 1243  Z " fill-rule="nonzero" fill="#f0f0f0" stroke="none" />
  <path d="M 45 1243.5  C 48.08 1243.5  50.5 1245.92  50.5 1249  C 50.5 1252.08  48.08 1254.5  45 1254.5  C 41.92 1254.5  39.5 1252.08  39.5 1249  C 39.5 1245.92  41.92 1243.5  45 1243.5  Z " stroke-width="1" stroke="#797979" fill="none" />
  <path d="M 45 1252  C 43.32 1252  42 1250.68  42 1249  C 42 1247.32  43.32 1246  45 1246  C 46.68 1246  48 1247.32  48 1249  C 48 1250.68  46.68 1252  45 1252  " fill-rule="nonzero" fill="#797979" stroke="none" />
</svg>