<?xml version="1.0" encoding="utf-8"?>
<svg version="1.1" xmlns:xlink="http://www.w3.org/1999/xlink" width="12px" height="12px" viewBox="16 227  12 12" xmlns="http://www.w3.org/2000/svg">
  <path d="M 22 227  C 25.36 227  28 229.64  28 233  C 28 236.36  25.36 239  22 239  C 18.64 239  16 236.36  16 233  C 16 229.64  18.64 227  22 227  Z " fill-rule="nonzero" fill="#ffffff" stroke="none" />
  <path d="M 22 227.5  C 25.08 227.5  27.5 229.92  27.5 233  C 27.5 236.08  25.08 238.5  22 238.5  C 18.92 238.5  16.5 236.08  16.5 233  C 16.5 229.92  18.92 227.5  22 227.5  Z " stroke-width="1" stroke="#797979" fill="none" />
  <path d="M 22 236  C 20.32 236  19 234.68  19 233  C 19 231.32  20.32 230  22 230  C 23.68 230  25 231.32  25 233  C 25 234.68  23.68 236  22 236  " fill-rule="nonzero" fill="#797979" stroke="none" />
</svg>