<?xml version="1.0" encoding="utf-8"?>
<svg version="1.1" xmlns:xlink="http://www.w3.org/1999/xlink" width="20px" height="20px" viewBox="16 232  20 20" xmlns="http://www.w3.org/2000/svg">
  <path d="M 26 232  C 31.6 232  36 236.4  36 242  C 36 247.6  31.6 252  26 252  C 20.4 252  16 247.6  16 242  C 16 236.4  20.4 232  26 232  Z " fill-rule="nonzero" fill="#ffffff" stroke="none" />
  <path d="M 26 232.5  C 31.32 232.5  35.5 236.68  35.5 242  C 35.5 247.32  31.32 251.5  26 251.5  C 20.68 251.5  16.5 247.32  16.5 242  C 16.5 236.68  20.68 232.5  26 232.5  Z " stroke-width="1" stroke="#797979" fill="none" />
  <path d="M 26 247  C 23.2 247  21 244.8  21 242  C 21 239.2  23.2 237  26 237  C 28.8 237  31 239.2  31 242  C 31 244.8  28.8 247  26 247  " fill-rule="nonzero" fill="#797979" stroke="none" />
</svg>