<?xml version="1.0" encoding="utf-8"?>
<svg version="1.1" xmlns:xlink="http://www.w3.org/1999/xlink" width="12px" height="12px" viewBox="228 979  12 12" xmlns="http://www.w3.org/2000/svg">
  <path d="M 234 979  C 237.36 979  240 981.64  240 985  C 240 988.36  237.36 991  234 991  C 230.64 991  228 988.36  228 985  C 228 981.64  230.64 979  234 979  Z " fill-rule="nonzero" fill="#ffffff" stroke="none" />
  <path d="M 234 979.5  C 237.08 979.5  239.5 981.92  239.5 985  C 239.5 988.08  237.08 990.5  234 990.5  C 230.92 990.5  228.5 988.08  228.5 985  C 228.5 981.92  230.92 979.5  234 979.5  Z " stroke-width="1" stroke="#797979" fill="none" />
  <path d="M 234 988  C 232.32 988  231 986.68  231 985  C 231 983.32  232.32 982  234 982  C 235.68 982  237 983.32  237 985  C 237 986.68  235.68 988  234 988  " fill-rule="nonzero" fill="#797979" stroke="none" />
</svg>