<?xml version="1.0" encoding="utf-8"?>
<svg version="1.1" xmlns:xlink="http://www.w3.org/1999/xlink" width="12px" height="12px" viewBox="228 1000  12 12" xmlns="http://www.w3.org/2000/svg">
  <path d="M 234 1000  C 237.36 1000  240 1002.64  240 1006  C 240 1009.36  237.36 1012  234 1012  C 230.64 1012  228 1009.36  228 1006  C 228 1002.64  230.64 1000  234 1000  Z " fill-rule="nonzero" fill="#ffffff" stroke="none" />
  <path d="M 234 1000.5  C 237.08 1000.5  239.5 1002.92  239.5 1006  C 239.5 1009.08  237.08 1011.5  234 1011.5  C 230.92 1011.5  228.5 1009.08  228.5 1006  C 228.5 1002.92  230.92 1000.5  234 1000.5  Z " stroke-width="1" stroke="#797979" fill="none" />
  <path d="M 234 1009  C 232.32 1009  231 1007.68  231 1006  C 231 1004.32  232.32 1003  234 1003  C 235.68 1003  237 1004.32  237 1006  C 237 1007.68  235.68 1009  234 1009  " fill-rule="nonzero" fill="#797979" stroke="none" />
</svg>