<?xml version="1.0" encoding="utf-8"?>
<svg version="1.1" xmlns:xlink="http://www.w3.org/1999/xlink" width="12px" height="12px" viewBox="612 1405  12 12" xmlns="http://www.w3.org/2000/svg">
  <path d="M 618 1405  C 621.36 1405  624 1407.64  624 1411  C 624 1414.36  621.36 1417  618 1417  C 614.64 1417  612 1414.36  612 1411  C 612 1407.64  614.64 1405  618 1405  Z " fill-rule="nonzero" fill="#ffffff" stroke="none" />
  <path d="M 618 1405.5  C 621.08 1405.5  623.5 1407.92  623.5 1411  C 623.5 1414.08  621.08 1416.5  618 1416.5  C 614.92 1416.5  612.5 1414.08  612.5 1411  C 612.5 1407.92  614.92 1405.5  618 1405.5  Z " stroke-width="1" stroke="#797979" fill="none" />
  <path d="M 618 1414  C 616.32 1414  615 1412.68  615 1411  C 615 1409.32  616.32 1408  618 1408  C 619.68 1408  621 1409.32  621 1411  C 621 1412.68  619.68 1414  618 1414  " fill-rule="nonzero" fill="#797979" stroke="none" />
</svg>