<?xml version="1.0" encoding="utf-8"?>
<svg version="1.1" xmlns:xlink="http://www.w3.org/1999/xlink" width="12px" height="12px" viewBox="228 1268  12 12" xmlns="http://www.w3.org/2000/svg">
  <path d="M 234 1268  C 237.36 1268  240 1270.64  240 1274  C 240 1277.36  237.36 1280  234 1280  C 230.64 1280  228 1277.36  228 1274  C 228 1270.64  230.64 1268  234 1268  Z " fill-rule="nonzero" fill="#ffffff" stroke="none" />
  <path d="M 234 1268.5  C 237.08 1268.5  239.5 1270.92  239.5 1274  C 239.5 1277.08  237.08 1279.5  234 1279.5  C 230.92 1279.5  228.5 1277.08  228.5 1274  C 228.5 1270.92  230.92 1268.5  234 1268.5  Z " stroke-width="1" stroke="#797979" fill="none" />
  <path d="M 234 1277  C 232.32 1277  231 1275.68  231 1274  C 231 1272.32  232.32 1271  234 1271  C 235.68 1271  237 1272.32  237 1274  C 237 1275.68  235.68 1277  234 1277  " fill-rule="nonzero" fill="#797979" stroke="none" />
</svg>