<?xml version="1.0" encoding="utf-8"?>
<svg version="1.1" xmlns:xlink="http://www.w3.org/1999/xlink" width="12px" height="12px" viewBox="612 1426  12 12" xmlns="http://www.w3.org/2000/svg">
  <path d="M 618 1426  C 621.36 1426  624 1428.64  624 1432  C 624 1435.36  621.36 1438  618 1438  C 614.64 1438  612 1435.36  612 1432  C 612 1428.64  614.64 1426  618 1426  Z " fill-rule="nonzero" fill="#ffffff" stroke="none" />
  <path d="M 618 1426.5  C 621.08 1426.5  623.5 1428.92  623.5 1432  C 623.5 1435.08  621.08 1437.5  618 1437.5  C 614.92 1437.5  612.5 1435.08  612.5 1432  C 612.5 1428.92  614.92 1426.5  618 1426.5  Z " stroke-width="1" stroke="#797979" fill="none" />
  <path d="M 618 1435  C 616.32 1435  615 1433.68  615 1432  C 615 1430.32  616.32 1429  618 1429  C 619.68 1429  621 1430.32  621 1432  C 621 1433.68  619.68 1435  618 1435  " fill-rule="nonzero" fill="#797979" stroke="none" />
</svg>