<?xml version="1.0" encoding="utf-8"?>
<svg version="1.1" xmlns:xlink="http://www.w3.org/1999/xlink" width="19px" height="13px" xmlns="http://www.w3.org/2000/svg">
  <g transform="matrix(1 0 0 1 -158 -98 )">
    <path d="M 18.809619238477 1.34020618556701  C 18.936539746159 1.48911798396334  19 1.66036655211913  19 1.85395189003436  C 19 2.0475372279496  18.936539746159 2.21878579610538  18.809619238477 2.36769759450172  L 9.93787575150301 12.7766323024055  C 9.81095524382098 12.9255441008018  9.66499665998664 13  9.5 13  C 9.33500334001336 13  9.18904475617903 12.9255441008018  9.06212424849699 12.7766323024055  L 0.190380761523046 2.36769759450172  C 0.0634602538410155 2.21878579610538  0 2.0475372279496  0 1.85395189003436  C 0 1.66036655211913  0.0634602538410155 1.48911798396334  0.190380761523046 1.34020618556701  L 1.14228456913828 0.223367697594502  C 1.26920507682031 0.0744558991981655  1.41516366065464 0  1.58016032064128 0  C 1.74515698062792 0  1.89111556446226 0.0744558991981655  2.01803607214429 0.223367697594502  L 9.5 9.00171821305842  L 16.9819639278557 0.223367697594502  C 17.1088844355377 0.0744558991981655  17.2548430193721 0  17.4198396793587 0  C 17.5848363393454 0  17.7307949231797 0.0744558991981655  17.8577154308617 0.223367697594502  L 18.809619238477 1.34020618556701  Z " fill-rule="nonzero" fill="#8c8c8c" stroke="none" transform="matrix(1 0 0 1 158 98 )" />
  </g>
</svg>