<?xml version="1.0" encoding="utf-8"?>
<svg version="1.1" xmlns:xlink="http://www.w3.org/1999/xlink" width="56px" height="16px" xmlns="http://www.w3.org/2000/svg">
  <defs>
    <linearGradient gradientUnits="userSpaceOnUse" x1="28.4" y1="5.2" x2="-8.00000000000002" y2="19.6" id="LinearGradient43">
      <stop id="Stop44" stop-color="#ffffff" offset="0" />
      <stop id="Stop45" stop-color="#000000" offset="1" />
    </linearGradient>
    <mask fill="white" id="clip46">
      <path d="M 0 11  L 0 5  C 0 2.2  0.832432432432431 0  1.89189189189189 0  L 54.1081081081081 0  C 55.1675675675676 0  56 2.2  56 5  L 56 11  C 56 13.8  55.1675675675676 16  54.1081081081081 16  L 36.8938134810711 16  L 1.89189189189189 16  C 0.832432432432431 16  0 13.8  0 11  Z " fill-rule="evenodd" />
    </mask>
  </defs>
  <g transform="matrix(1 0 0 1 -284 -46 )">
    <path d="M 0 11  L 0 5  C 0 2.2  0.832432432432431 0  1.89189189189189 0  L 54.1081081081081 0  C 55.1675675675676 0  56 2.2  56 5  L 56 11  C 56 13.8  55.1675675675676 16  54.1081081081081 16  L 36.8938134810711 16  L 1.89189189189189 16  C 0.832432432432431 16  0 13.8  0 11  Z " fill-rule="nonzero" fill="url(#LinearGradient43)" stroke="none" transform="matrix(1 0 0 1 284 46 )" />
    <path d="M 0 11  L 0 5  C 0 2.2  0.832432432432431 0  1.89189189189189 0  L 54.1081081081081 0  C 55.1675675675676 0  56 2.2  56 5  L 56 11  C 56 13.8  55.1675675675676 16  54.1081081081081 16  L 36.8938134810711 16  L 1.89189189189189 16  C 0.832432432432431 16  0 13.8  0 11  Z " stroke-width="2" stroke="#797979" fill="none" transform="matrix(1 0 0 1 284 46 )" mask="url(#clip46)" />
  </g>
</svg>