<?xml version="1.0" encoding="utf-8"?>
<svg version="1.1" xmlns:xlink="http://www.w3.org/1999/xlink" width="23px" height="23px" viewBox="192 139  23 23" xmlns="http://www.w3.org/2000/svg">
  <path d="M 203.5 139  C 209.94 139  215 144.06  215 150.5  C 215 156.94  209.94 162  203.5 162  C 197.06 162  192 156.94  192 150.5  C 192 144.06  197.06 139  203.5 139  Z " fill-rule="nonzero" fill="#f0f0f0" stroke="none" />
  <path d="M 203.5 139.5  C 209.66 139.5  214.5 144.34  214.5 150.5  C 214.5 156.66  209.66 161.5  203.5 161.5  C 197.34 161.5  192.5 156.66  192.5 150.5  C 192.5 144.34  197.34 139.5  203.5 139.5  Z " stroke-width="1" stroke="#797979" fill="none" />
  <path d="M 203.5 156.25  C 200.28 156.25  197.75 153.72  197.75 150.5  C 197.75 147.28  200.28 144.75  203.5 144.75  C 206.72 144.75  209.25 147.28  209.25 150.5  C 209.25 153.72  206.72 156.25  203.5 156.25  " fill-rule="nonzero" fill="#797979" stroke="none" />
</svg>