<?xml version="1.0" encoding="utf-8"?>
<svg version="1.1" xmlns:xlink="http://www.w3.org/1999/xlink" width="24px" height="24px" viewBox="192 82  24 24" xmlns="http://www.w3.org/2000/svg">
  <path d="M 204 82  C 210.72 82  216 87.28  216 94  C 216 100.72  210.72 106  204 106  C 197.28 106  192 100.72  192 94  C 192 87.28  197.28 82  204 82  Z " fill-rule="nonzero" fill="#f0f0f0" stroke="none" />
  <path d="M 204 82.5  C 210.44 82.5  215.5 87.56  215.5 94  C 215.5 100.44  210.44 105.5  204 105.5  C 197.56 105.5  192.5 100.44  192.5 94  C 192.5 87.56  197.56 82.5  204 82.5  Z " stroke-width="1" stroke="#797979" fill="none" />
  <path d="M 204 100  C 200.64 100  198 97.36  198 94  C 198 90.64  200.64 88  204 88  C 207.36 88  210 90.64  210 94  C 210 97.36  207.36 100  204 100  " fill-rule="nonzero" fill="#797979" stroke="none" />
</svg>