<?xml version="1.0" encoding="utf-8"?>
<svg version="1.1" xmlns:xlink="http://www.w3.org/1999/xlink" width="19px" height="13px" xmlns="http://www.w3.org/2000/svg">
  <g transform="matrix(1 0 0 1 -158 -75 )">
    <path d="M 18.809619238477 10.6323024054983  C 18.936539746159 10.7812142038946  19 10.9524627720504  19 11.1460481099656  C 19 11.3396334478809  18.936539746159 11.5108820160367  18.809619238477 11.659793814433  L 17.8577154308617 12.7766323024055  C 17.7307949231797 12.9255441008018  17.5848363393454 13  17.4198396793587 13  C 17.2548430193721 13  17.1088844355377 12.9255441008018  16.9819639278557 12.7766323024055  L 9.5 3.99828178694158  L 2.01803607214429 12.7766323024055  C 1.89111556446226 12.9255441008018  1.74515698062792 13  1.58016032064128 13  C 1.41516366065464 13  1.26920507682031 12.9255441008018  1.14228456913828 12.7766323024055  L 0.190380761523046 11.659793814433  C 0.0634602538410155 11.5108820160367  0 11.3396334478809  0 11.1460481099656  C 0 10.9524627720504  0.0634602538410155 10.7812142038946  0.190380761523046 10.6323024054983  L 9.06212424849699 0.223367697594502  C 9.18904475617903 0.0744558991981655  9.33500334001336 0  9.5 0  C 9.66499665998664 0  9.81095524382098 0.0744558991981655  9.93787575150301 0.223367697594502  L 18.809619238477 10.6323024054983  Z " fill-rule="nonzero" fill="#333333" stroke="none" transform="matrix(1 0 0 1 158 75 )" />
  </g>
</svg>