<?xml version="1.0" encoding="utf-8"?>
<svg version="1.1" xmlns:xlink="http://www.w3.org/1999/xlink" width="12px" height="12px" viewBox="49 180  12 12" xmlns="http://www.w3.org/2000/svg">
  <path d="M 55 180  C 58.36 180  61 182.64  61 186  C 61 189.36  58.36 192  55 192  C 51.64 192  49 189.36  49 186  C 49 182.64  51.64 180  55 180  Z " fill-rule="nonzero" fill="#f0f0f0" stroke="none" />
  <path d="M 55 180.5  C 58.08 180.5  60.5 182.92  60.5 186  C 60.5 189.08  58.08 191.5  55 191.5  C 51.92 191.5  49.5 189.08  49.5 186  C 49.5 182.92  51.92 180.5  55 180.5  Z " stroke-width="1" stroke="#797979" fill="none" />
  <path d="M 55 189  C 53.32 189  52 187.68  52 186  C 52 184.32  53.32 183  55 183  C 56.68 183  58 184.32  58 186  C 58 187.68  56.68 189  55 189  " fill-rule="nonzero" fill="#797979" stroke="none" />
</svg>