<?xml version="1.0" encoding="utf-8"?>
<svg version="1.1" xmlns:xlink="http://www.w3.org/1999/xlink" width="23px" height="23px" viewBox="219 116  23 23" xmlns="http://www.w3.org/2000/svg">
  <path d="M 230.5 116  C 236.94 116  242 121.06  242 127.5  C 242 133.94  236.94 139  230.5 139  C 224.06 139  219 133.94  219 127.5  C 219 121.06  224.06 116  230.5 116  Z " fill-rule="nonzero" fill="#ffffff" stroke="none" />
  <path d="M 230.5 116.5  C 236.66 116.5  241.5 121.34  241.5 127.5  C 241.5 133.66  236.66 138.5  230.5 138.5  C 224.34 138.5  219.5 133.66  219.5 127.5  C 219.5 121.34  224.34 116.5  230.5 116.5  Z " stroke-width="1" stroke="#797979" fill="none" />
  <path d="M 230.5 133.25  C 227.28 133.25  224.75 130.72  224.75 127.5  C 224.75 124.28  227.28 121.75  230.5 121.75  C 233.72 121.75  236.25 124.28  236.25 127.5  C 236.25 130.72  233.72 133.25  230.5 133.25  " fill-rule="nonzero" fill="#797979" stroke="none" />
</svg>