<?xml version="1.0" encoding="utf-8"?>
<svg version="1.1" xmlns:xlink="http://www.w3.org/1999/xlink" width="23px" height="23px" viewBox="217 110  23 23" xmlns="http://www.w3.org/2000/svg">
  <path d="M 228.5 110  C 234.94 110  240 115.06  240 121.5  C 240 127.94  234.94 133  228.5 133  C 222.06 133  217 127.94  217 121.5  C 217 115.06  222.06 110  228.5 110  Z " fill-rule="nonzero" fill="#ffffff" stroke="none" />
  <path d="M 228.5 110.5  C 234.66 110.5  239.5 115.34  239.5 121.5  C 239.5 127.66  234.66 132.5  228.5 132.5  C 222.34 132.5  217.5 127.66  217.5 121.5  C 217.5 115.34  222.34 110.5  228.5 110.5  Z " stroke-width="1" stroke="#797979" fill="none" />
  <path d="M 228.5 127.25  C 225.28 127.25  222.75 124.72  222.75 121.5  C 222.75 118.28  225.28 115.75  228.5 115.75  C 231.72 115.75  234.25 118.28  234.25 121.5  C 234.25 124.72  231.72 127.25  228.5 127.25  " fill-rule="nonzero" fill="#797979" stroke="none" />
</svg>